<svg width="80" height="80" viewBox="0 0 80 80" fill="none" xmlns="http://www.w3.org/2000/svg">
<rect width="80" height="80" fill="white"/>
<path fill-rule="evenodd" clip-rule="evenodd" d="M20 40.0109C20 28.9703 28.9735 20 40.0136 20C51.0286 20 60 28.9703 60 40.0109C60 51.0286 51.0286 60 40.0136 60C28.9735 60 20 51.0286 20 40.0109ZM20.9999 40.0109C20.9999 50.4774 29.5291 58.9996 40.0136 58.9996C50.4769 58.9996 59.0001 50.4753 59.0001 40.0109C59.0001 29.5269 50.4801 21.0004 40.0136 21.0004C29.5258 21.0004 20.9999 29.5226 20.9999 40.0109ZM45.6885 27.4371C42.5233 26.0254 36.6254 25.8854 31.7942 28.0371C32.1804 27.7604 32.5836 27.5109 33.0018 27.2873C33.2568 27.1506 33.5178 27.0237 33.7831 26.9076C35.3044 26.199 37.7577 25.5122 40.8154 25.5122C40.9597 25.5122 41.1041 25.5132 41.2489 25.5165C43.8634 25.5632 46.9629 26.4659 48.8574 28.3398C49.1797 28.7326 49.3663 29.1243 49.4352 29.4271C50.9386 30.191 51.8164 30.9071 52.3009 31.7405C52.5109 32.1788 52.5798 32.64 52.4854 33.1727C52.9785 33.4494 53.406 33.8292 53.7386 34.2871C53.9431 34.6332 54.1054 35.0228 54.1531 35.3754C54.2209 35.8344 54.2665 36.3661 53.7809 36.9922C54.2898 37.2472 54.7043 37.9612 54.7542 38.265C55.0087 39.3945 54.2665 40.5056 53.3198 41.3639C52.6112 41.9824 51.3585 42.6769 50.0277 43.2313C49.2714 43.546 48.4896 43.8162 47.7686 44.0007C44.9902 44.7038 42.4278 45.1183 40.185 45.4818C39.2584 45.6326 38.386 45.7737 37.5754 45.9223C38.3143 46.0992 39.2079 46.3108 40.3852 46.4529C41.1957 46.5517 42.1408 46.6168 43.2633 46.6168C49.1564 46.6168 54.3598 43.8379 54.3598 43.8379C54.3598 43.8379 54.2453 44.1873 54.1276 44.5117C50.383 46.7773 44.4423 47.7246 41.8967 47.6085C39.33 47.4913 37.1577 47.0996 35.0298 46.4507C34.3799 46.6341 33.7397 46.85 33.112 47.0996C36.3509 48.5796 38.7999 48.9052 41.5522 49.1113C44.3707 49.3218 49.0441 48.648 52.9709 47.2179C52.883 47.3069 52.8158 47.4165 52.7501 47.5239C52.678 47.6411 52.6069 47.7572 52.5109 47.8418C50.4986 48.9052 46.2467 49.9696 44.0956 50.0618C41.9667 50.1552 39.3777 50.0618 37.111 49.6441C35.1687 49.2535 33.571 48.648 31.9076 47.9112C31.6097 48.1391 31.4708 48.4201 31.3987 48.7446C37.8998 52.1441 43.954 52.2114 50.8708 50.0618L50.2441 50.6641C42.6367 53.7641 36.6943 52.5597 32.0909 50.3385C31.932 50.2691 31.7464 50.1986 31.6097 50.1074C32.0497 50.8485 35.561 53.4158 39.4922 53.7402C40.9136 53.8618 42.5 53.7912 43.9703 53.584C45.3006 53.3963 46.5365 53.0957 47.4696 52.7235L46.314 53.3236C45.3651 53.7869 42.8456 54.8535 39.3289 54.6202C34.6365 54.2947 31.9998 52.2125 30.8198 51.1274C30.2653 50.6152 30.013 50.0391 29.8497 49.3218C28.7853 48.7663 28.1152 48.1858 27.5629 47.3079C27.2385 46.8229 27.3052 46.2457 27.3741 45.7563L27.5184 45.3451C27.0063 44.9707 26.4752 44.5779 26.2674 44.1873C25.8019 43.354 26.084 42.6356 26.4063 42.0801C26.3037 41.9618 26.2044 41.8435 26.1144 41.7253C25.9592 41.5202 25.8312 41.3151 25.7612 41.11C25.6207 40.74 25.599 40.3657 25.6407 39.9512C25.7351 39.2589 26.1051 38.6133 26.5907 38.0556C27.6063 36.875 29.2285 35.9505 31.9765 35.0488C34.0717 34.349 35.1969 34.107 36.5413 33.8184C36.9347 33.7337 37.3465 33.6458 37.8065 33.5406C40.1877 32.9894 43.0322 32.806 45.4118 31.9727C38.7755 30.8171 31.8864 31.8793 26.2674 35.7389L26.6363 34.6528C31.6764 31.3694 37.2499 29.4271 46.6829 31.0699C47.1918 30.7682 47.4919 30.4666 47.6329 29.8665C45.2729 29.0115 42.7078 28.7109 39.4021 28.7554C36.441 28.8498 31.0975 29.9555 28.2351 31.6504L29.1097 30.561C31.0975 29.3772 36.2999 27.8299 40.211 27.7604C42.9601 27.6921 44.3707 27.8526 47.6552 28.7326C47.3519 28.1803 46.6829 27.9004 45.6885 27.4371ZM50.7286 32.2504C50.6386 31.6026 49.8985 30.9776 49.2497 30.561C49.1895 30.7715 49.024 31.0102 48.8515 31.2218C48.7581 31.3368 48.6627 31.4431 48.5807 31.5332C49.2974 31.7198 50.0374 31.9933 50.7286 32.2504ZM47.564 32.4566C47.0985 32.8277 46.5696 33.15 45.7807 33.4538C47.0785 33.6806 48.0496 34.0517 49.1564 34.3544C49.1678 34.3598 49.1808 34.362 49.1933 34.3609C49.4341 34.3609 50.2262 33.6285 50.363 33.4277C49.9344 33.24 49.4531 33.0512 48.9372 32.8743C48.5004 32.7246 48.0393 32.5825 47.564 32.4566ZM52.5109 35.8572C52.8098 35.2789 52.6253 34.9089 52.003 34.3761C51.7475 34.6799 51.4697 34.9316 51.1697 35.1628C51.3878 35.2669 51.5972 35.357 51.7996 35.4525C52.0464 35.5686 52.283 35.6923 52.5109 35.8572ZM42.1077 34.6332C39.0554 35.0033 35.6776 35.6478 32.7886 36.505L32.6345 36.5517C31.2006 36.9878 25.7785 38.6328 27.4251 40.9006L27.4447 40.8789C27.602 40.701 28.7451 39.4021 32.3475 38.355C34.8817 37.6107 37.4799 37.1376 40.1188 36.6569C42.4892 36.225 44.8926 35.7867 47.3107 35.1411C45.8713 34.758 44.8904 34.5291 43.6632 34.528C43.1939 34.528 42.6888 34.5616 42.1077 34.6332ZM45.4134 37.4316C43.7722 37.8472 39.7933 38.4256 35.5176 39.35C34.1753 39.6506 30.4975 40.5056 28.6941 42.0334C28.9833 42.2721 29.2133 42.4045 29.4596 42.5336C29.6457 42.6313 29.8416 42.7279 30.0798 42.8668C30.8198 42.3796 31.8387 41.9173 33.3442 41.5224C35.7189 40.8919 37.5646 40.5881 39.6555 40.2441L40.2799 40.1411C42.6156 39.7873 47.0307 38.8628 49.4575 37.9839C50.0157 37.7951 50.5387 37.5608 50.9842 37.2884C51.1865 37.1647 51.3726 37.0334 51.5386 36.8956C51.3764 36.7133 49.8041 35.9505 49.7575 36.0211C48.7896 36.4822 47.4018 36.9434 45.4134 37.4316ZM47.0551 40.5773C42.1077 41.9173 38.5211 42.0996 34.451 43.1C33.9822 43.2183 33.5064 43.355 33.0415 43.5113C32.7029 43.6241 32.3698 43.7478 32.0497 43.8835C32.8098 44.2773 33.6431 44.6257 34.4743 44.9501C36.1388 44.464 36.9287 44.2556 39.3289 43.8628L40.6619 43.623C41.9331 43.3908 43.7082 43.0621 45.1096 42.7778C48.7896 41.9878 54.1764 40.2756 52.7431 38.0556C52.6714 38.1163 52.5998 38.1717 52.5282 38.227C52.4376 38.2986 52.3475 38.3702 52.2575 38.4494C51.1697 39.2773 49.4352 39.9512 47.0551 40.5773ZM28.2785 44.2773C28.4386 44.1168 28.6485 43.9768 28.8108 43.8379C28.4386 43.6458 28.1836 43.4831 27.8912 43.2964L27.723 43.189C27.5374 43.61 27.9107 44.0668 28.2785 44.2773ZM32.5776 45.6196C31.9076 45.319 31.1919 45.0206 30.4975 44.6962C30.1742 44.9045 29.8752 45.1107 29.643 45.319C30.1975 45.6434 30.7308 45.9418 31.2864 46.2467C31.6949 45.995 32.1273 45.7845 32.5776 45.6196ZM29.8752 47.7724C29.9419 47.5391 30.0597 47.3557 30.2219 47.1246C30.0391 47.0269 29.8568 46.9303 29.6745 46.8294C29.4629 46.7112 29.2524 46.5885 29.0419 46.4507C29.0164 46.8924 29.2963 47.2852 29.8752 47.7724Z" fill="#476BF0"/>
</svg>
