<svg width="80" height="80" viewBox="0 0 80 80" fill="none" xmlns="http://www.w3.org/2000/svg">
<rect width="80" height="80" fill="white"/>
<path d="M39.7686 60C29.9709 60 22 52.0339 22 42.2411C22 36.6105 24.5827 31.4355 29.0842 28.0436L29.2732 27.9031V20H39.4682V24.4773C39.5651 24.4773 39.6669 24.4724 39.7638 24.4724C49.5615 24.4724 57.5276 32.4434 57.5276 42.2411C57.5324 52.0339 49.5615 60 39.7686 60Z" fill="#19502E"/>
<path d="M37.278 25.335L37.7674 24.8553V21.1484H38.3247V26.6384L34.6275 30.2726V21.1484H35.1847V27.3847L35.6741 26.9049V21.1484H36.2314V26.3574L36.7208 25.8825V21.1484H37.278V25.335ZM33.5663 27.3847L33.0769 26.905V21.1484H32.5149V26.3574L32.0303 25.8777V21.1484H31.4682V25.335L30.9788 24.8553V21.1484H30.4216V26.6385L34.1236 30.2726V21.1484H33.5663V27.3847ZM34.6275 33.3205L38.3247 29.6814V27.3556L34.6275 30.9752V33.3205ZM34.6275 42.527L38.3247 38.8928V36.4216L34.6275 40.0412V42.527ZM38.3247 32.7293L34.6275 36.3635V34.0182L38.3247 30.4034V32.7293ZM38.3247 35.7772L34.6275 39.4113V37.0661L38.3247 33.4513V35.7772ZM30.4216 38.8928L34.1236 42.527V40.0412L30.4216 36.4216V38.8928ZM30.4216 29.6863L34.1236 33.3205V30.9752L30.4216 27.3556V29.6863ZM34.1236 36.3635L30.4216 32.7293V30.4034L34.1236 34.0182V36.3635ZM30.4216 35.7772L34.1236 39.4113V37.0661L30.4216 33.4464V35.7772ZM43.8631 37.696H52.4688C52.7208 37.696 52.934 37.9092 52.9291 38.1709V38.4616C52.9291 38.7232 52.7208 38.9365 52.464 38.9365H51.1411V39.3435H51.8001V39.9152H51.1411V40.5064H51.8001V41.5967H51.1411V41.1024H50.1623V41.5967H49.5033V40.5064H50.1623V39.9152H49.5033V39.3435H50.1623V38.9365H43.4706C43.6596 39.232 43.771 39.5809 43.771 39.9589C43.771 41.0297 42.8988 41.8971 41.828 41.8971C40.7571 41.8971 39.8898 41.0297 39.8898 39.9589C39.8898 39.5373 40.0254 39.1497 40.2532 38.8347C40.0836 38.7232 39.9721 38.5343 39.9721 38.3162C39.9721 38.0982 40.0836 37.9092 40.2532 37.7977C40.0254 37.4779 39.8898 37.0951 39.8898 36.6736C39.8898 35.6027 40.7571 34.7354 41.828 34.7354C42.8988 34.7354 43.771 35.6027 43.771 36.6736C43.771 37.0515 43.6596 37.4004 43.4706 37.696H43.8631ZM41.828 40.9522C42.3804 40.9522 42.831 40.5064 42.831 39.954C42.831 39.547 42.361 38.5779 42.361 38.5779V38.0497C42.361 38.0497 42.831 37.0758 42.831 36.6687C42.831 36.1163 42.3804 35.6657 41.828 35.6657C41.2804 35.6657 40.8298 36.1163 40.8298 36.6687C40.8298 36.8722 40.8879 37.0612 40.9945 37.2163L41.2756 37.6911C41.1011 37.8462 40.9945 38.0691 40.9945 38.3162C40.9945 38.5633 41.1011 38.7862 41.2756 38.9365L40.9945 39.4065C40.8879 39.5615 40.8298 39.7505 40.8298 39.954C40.8298 40.5064 41.2804 40.9522 41.828 40.9522Z" fill="#FFCB05"/>
<path d="M39.7686 25.6208C39.5021 25.6208 39.2356 25.6257 38.974 25.6402V26.7741C39.2356 26.7595 39.5021 26.7547 39.7686 26.7547C48.321 26.7547 55.255 33.6887 55.255 42.2459C55.255 50.7935 48.321 57.7275 39.7686 57.7275C31.2114 57.7226 24.2774 50.7886 24.2774 42.2411C24.2774 37.4924 26.4143 33.2429 29.7771 30.4034V28.9594C25.7505 31.9927 23.1484 36.8092 23.1484 42.2411C23.1484 51.4137 30.5912 58.8516 39.7686 58.8516C48.9461 58.8516 56.3889 51.4137 56.3889 42.2411C56.384 33.0636 48.9461 25.6208 39.7686 25.6208ZM27.0588 38.9364V36.5185C27.0588 36.5185 27.4513 37.8558 28.934 39.3483C29.4127 39.827 29.9645 40.3623 30.6541 41.0314L30.6543 41.0316L30.6549 41.0322L30.6558 41.033V41.0331L30.6566 41.0339C31.0902 41.4545 31.5783 41.9281 32.1369 42.4736C32.1889 42.5245 32.2451 42.5775 32.3044 42.6335L32.3045 42.6336C32.952 43.245 33.9685 44.2049 33.9685 46.3889V49.0588C33.7263 48.4627 33.5421 48.1187 32.4713 47.0721C32.447 47.0478 31.5743 46.1896 30.6654 45.2959C29.7571 44.4028 28.8128 43.4742 28.6433 43.3071C28.0667 42.7305 27.0588 41.2477 27.0588 38.9364ZM30.6541 47.0011L30.6548 47.0018C31.0888 47.4229 31.5775 47.897 32.1369 48.4434C32.1874 48.4923 32.2419 48.5434 32.2992 48.5972L32.2993 48.5973C32.9465 49.2047 33.9689 50.1643 33.9734 52.3586V55.1884L33.9554 55.1442C33.7214 54.5675 33.5204 54.0721 32.4761 53.0515C32.4325 53.003 28.9825 49.6305 28.6433 49.301C28.1103 48.6953 27.0588 47.2223 27.0588 44.9158V42.8274C27.0588 42.8274 27.4513 43.8304 28.934 45.318C29.4127 45.7967 29.9644 46.332 30.6541 47.0011ZM52.2556 49.8292C52.0279 50.2023 51.7808 50.5609 51.524 50.9146V47.5954H52.2556V49.8292ZM53.656 46.7862C53.7626 46.4664 53.8547 46.1417 53.937 45.8122H51.524V46.4082H51.8922C52.5318 46.3937 53.249 46.384 53.656 46.7862ZM36.9437 45.7347H37.5979V52.3537H36.9437V45.7347ZM35.4416 44.4555H37.5979C38.1551 44.4555 38.5427 44.5718 38.7753 44.7898C39.0031 45.003 39.1048 45.3955 39.1048 45.9528V52.1405C39.1048 52.7026 38.9982 53.0902 38.7753 53.3083C38.4313 53.6475 37.8014 53.6475 37.2781 53.6475C37.1618 53.6378 37.0503 53.6378 36.9486 53.6378V56.5693C37.0053 56.5794 37.0617 56.5898 37.118 56.6002C37.2782 56.6298 37.4378 56.6593 37.6027 56.6808V54.2726C38.596 54.2726 39.2502 53.9334 39.5555 53.255V56.8407H39.7687C39.9043 56.8407 40.0449 56.8407 40.1805 56.8358V46.069C40.1805 45.4973 40.2968 45.0999 40.51 44.8722C40.7281 44.6445 41.1157 44.533 41.6681 44.533C41.7441 44.533 41.8247 44.5315 41.9084 44.5299H41.9085C42.4443 44.5199 43.1061 44.5076 43.4707 44.8722C43.6887 45.0999 43.7905 45.5021 43.7905 46.069V49.2429H42.3077V45.8558H41.6681V56.7292C41.8813 56.705 42.0945 56.6711 42.3077 56.6323V49.8776H43.7905V56.2835C44.0957 56.1962 44.3962 56.0993 44.6917 55.9927V50.1296C44.6917 49.4658 44.8516 48.9667 45.5252 48.7389L44.779 44.6638H46.2762L46.5282 49.1169H46.7123L46.9643 44.6638H48.544L47.7008 48.7389C48.4083 48.9861 48.544 49.4222 48.544 50.1296V53.9188C48.9801 53.5893 49.4016 53.2356 49.799 52.8577V44.6299H54.1842C54.2132 44.4361 54.2423 44.2326 54.2665 44.0339H44.0037L44.149 44.7704C43.8244 44.1744 43.209 43.874 42.3077 43.874H41.6681C40.5827 43.874 39.9189 44.3053 39.6669 45.1678C39.4343 44.2665 38.7463 43.8159 37.6027 43.8159H34.7923V55.9733C35.0055 56.0509 35.2235 56.1236 35.4416 56.1914V44.4555ZM49.0673 49.1363L48.3598 48.4627L49.0673 44.8092V49.1363ZM46.9497 54.9606C46.7269 55.0866 46.504 55.2029 46.2762 55.3192V49.9455H46.9497V54.9606Z" fill="white"/>
</svg>
