<svg width="80" height="80" viewBox="0 0 80 80" fill="none" xmlns="http://www.w3.org/2000/svg">
<rect width="80" height="80" fill="white"/>
<path d="M55.3517 27.7702C56.2891 28.9985 57.0828 30.333 57.7165 31.7469L39.7397 45.1769L32.2268 40.4039V34.6618L39.7397 39.4348L55.3517 27.7702Z" fill="#21A038"/>
<path d="M24.5593 39.9995C24.5593 39.7418 24.5655 39.4858 24.5779 39.2314L20.0248 39.0052C20.0093 39.3351 20 39.6681 20 40.0041C19.9981 42.6299 20.5077 45.2301 21.4996 47.6557C22.4916 50.0815 23.9463 52.2847 25.7804 54.1393L29.0101 50.8678C27.5982 49.4427 26.4782 47.7489 25.7144 45.8838C24.9506 44.0186 24.558 42.0188 24.5593 39.9995Z" fill="url(#paint0_linear_261_4922)"/>
<path d="M39.7356 24.6203C39.9898 24.6203 40.2423 24.6297 40.4934 24.6423L40.7212 20.0264C40.3948 20.0107 40.0662 20.0028 39.7356 20.0028C37.1435 19.9996 34.5764 20.5154 32.1816 21.5204C29.7867 22.5255 27.6114 24.0001 25.7804 25.8595L29.01 29.1326C30.4162 27.7013 32.0877 26.5658 33.9284 25.7914C35.7691 25.017 37.7426 24.619 39.7356 24.6203Z" fill="url(#paint1_linear_261_4922)"/>
<path d="M39.7357 55.3799C39.4816 55.3799 39.2289 55.3799 38.9764 55.3595L38.7486 59.9738C39.0761 59.9905 39.4052 59.999 39.7357 59.999C42.3268 60.0017 44.8926 59.4856 47.2862 58.4803C49.6798 57.4749 51.8537 56.0001 53.6833 54.1407L50.4599 50.8692C49.0534 52.2998 47.3821 53.4346 45.5418 54.2087C43.7014 54.9828 41.7283 55.3809 39.7357 55.3799Z" fill="url(#paint2_linear_261_4922)"/>
<path d="M48.2905 27.3032L52.1275 24.4369C48.6204 21.5588 44.2426 19.992 39.7297 20V24.6191C42.7856 24.6152 45.7706 25.5512 48.2905 27.3032Z" fill="url(#paint3_linear_261_4922)"/>
<path d="M59.4699 40.0002C59.4724 38.7986 59.3687 37.599 59.1599 36.4161L54.9122 39.5887C54.9122 39.7254 54.9122 39.862 54.9122 40.0002C54.9133 42.1492 54.4688 44.2744 53.6076 46.2381C52.7463 48.2019 51.4875 49.9603 49.9128 51.3994L52.9766 54.8311C55.0239 52.958 56.6598 50.6699 57.7784 48.115C58.8971 45.56 59.4733 42.7953 59.4699 40.0002Z" fill="#21A038"/>
<path d="M39.7357 55.3803C37.6151 55.381 35.518 54.9304 33.5801 54.0576C31.6423 53.1849 29.9069 51.9093 28.4863 50.3136L25.1017 53.4171C26.9497 55.4922 29.2074 57.1504 31.7285 58.2844C34.2495 59.4183 36.9775 60.0026 39.7357 59.9993V55.3803Z" fill="url(#paint4_linear_261_4922)"/>
<path d="M29.5587 28.6001L26.4964 25.1684C24.4486 27.0411 22.812 29.3291 21.6928 31.8841C20.5737 34.439 19.9969 37.2039 20 39.9993H24.5593C24.5583 37.8504 25.0029 35.7251 25.8641 33.7614C26.7253 31.7978 27.984 30.0393 29.5587 28.6001Z" fill="url(#paint5_linear_261_4922)"/>
<defs>
<linearGradient id="paint0_linear_261_4922" x1="26.7025" y1="53.5629" x2="21.6015" y2="39.0128" gradientUnits="userSpaceOnUse">
<stop offset="0.14" stop-color="#F1E813"/>
<stop offset="0.3" stop-color="#E6E418"/>
<stop offset="0.58" stop-color="#C9DA26"/>
<stop offset="0.89" stop-color="#A2CC39"/>
</linearGradient>
<linearGradient id="paint1_linear_261_4922" x1="27.0822" y1="26.6762" x2="39.9553" y2="21.8356" gradientUnits="userSpaceOnUse">
<stop offset="0.06" stop-color="#0FA7DF"/>
<stop offset="0.54" stop-color="#0098F8"/>
<stop offset="0.92" stop-color="#0290EA"/>
</linearGradient>
<linearGradient id="paint2_linear_261_4922" x1="38.448" y1="57.2112" x2="52.975" y2="53.9729" gradientUnits="userSpaceOnUse">
<stop offset="0.12" stop-color="#A2CC39"/>
<stop offset="0.28" stop-color="#86C239"/>
<stop offset="0.87" stop-color="#219F38"/>
</linearGradient>
<linearGradient id="paint3_linear_261_4922" x1="38.7814" y1="21.547" x2="51.2138" y2="25.3327" gradientUnits="userSpaceOnUse">
<stop offset="0.06" stop-color="#0290EA"/>
<stop offset="0.79" stop-color="#0C89CA"/>
</linearGradient>
<linearGradient id="paint4_linear_261_4922" x1="26.2454" y1="52.8548" x2="39.7904" y2="57.8498" gradientUnits="userSpaceOnUse">
<stop offset="0.13" stop-color="#F1E813"/>
<stop offset="0.3" stop-color="#EAE616"/>
<stop offset="0.53" stop-color="#D8DF1F"/>
<stop offset="0.8" stop-color="#BAD52D"/>
<stop offset="0.98" stop-color="#A2CC39"/>
</linearGradient>
<linearGradient id="paint5_linear_261_4922" x1="21.6985" y1="40.5584" x2="27.2454" y2="26.3206" gradientUnits="userSpaceOnUse">
<stop offset="0.07" stop-color="#A2CC39"/>
<stop offset="0.26" stop-color="#81C45E"/>
<stop offset="0.92" stop-color="#0FA7DF"/>
</linearGradient>
</defs>
</svg>
