<svg width="80" height="80" viewBox="0 0 80 80" fill="none" xmlns="http://www.w3.org/2000/svg">
<rect width="80" height="80" fill="white"/>
<path d="M59.4716 38.7062L60 37.0469L58.2815 37.1012C57.4765 37.0716 56.7012 36.8 56.0494 36.321H56.2815C57.3284 36.316 58.2864 35.7185 58.7506 34.7802L59.5062 33.1654C58.9136 33.1704 58.321 33.1358 57.7333 33.0617C57.1704 32.9284 56.6667 32.6222 56.2864 32.1877C55.7728 31.6395 55.0617 31.3284 54.3111 31.3235C54.0198 31.3235 53.7284 31.3728 53.4469 31.4617C53.4864 31.3284 53.521 31.1951 53.5457 31.0568C53.6642 30.0938 53.3926 29.121 52.7951 28.3556L51.4914 26.7506L50.6914 28.6272C50.563 28.8938 50.3704 29.1259 50.1235 29.2938C49.9852 28.6222 49.6593 28.0099 49.1753 27.5259C48.3654 26.6963 47.2543 26.2321 46.0938 26.242C45.8914 26.242 45.6889 26.2568 45.4914 26.2864L43.9309 26.5926C44.0642 26.0691 44.2765 25.5704 44.563 25.1111L45.4222 23.7728L43.2593 23.9753L42.5679 22.4938L41.2346 23.2197L40 22L38.7654 23.2197L37.4321 22.5284L36.7407 23.9753L34.5778 23.7284L35.437 25.0716C35.7235 25.5309 35.9358 26.0296 36.0691 26.5531L34.5877 26.2617H34.5383C34.3309 26.2321 34.1235 26.2173 33.916 26.2173C32.7556 26.2074 31.6444 26.6716 30.8346 27.5012C30.3457 27.9901 30.0099 28.6123 29.8765 29.2938C29.6395 29.1309 29.4469 28.9086 29.3185 28.6469L28.5136 26.7556L27.2 28.3654C26.6123 29.1309 26.3506 30.0988 26.4642 31.0568C26.4889 31.1951 26.5235 31.3284 26.563 31.4617C26.2815 31.3728 25.9901 31.3235 25.6988 31.3235C24.9482 31.3284 24.237 31.6395 23.7235 32.1877C23.3482 32.6173 22.8494 32.9235 22.2914 33.0617C21.6988 33.1506 21.0963 33.1852 20.4938 33.1654L21.2296 34.8049C21.6938 35.7432 22.6519 36.3407 23.6988 36.3457H23.9309C23.2889 36.8148 22.5235 37.0864 21.7284 37.121L20 37.0469L20.5284 38.7062C20.9235 40.0049 22.0444 40.958 23.3926 41.1309C23.2543 42.0049 22.7012 42.7605 21.9111 43.1556L20.5877 43.6938L21.2988 44.9333C21.8864 45.8469 22.8988 46.3901 23.9802 46.3802C24.2617 46.3802 24.5432 46.3506 24.8197 46.2914C24.8889 46.5926 24.9778 46.8938 25.0765 47.1852C25.3235 47.837 25.3383 48.5481 25.1259 49.2099L24.484 50.558L25.921 50.9383C26.242 51.0222 26.5778 51.0617 26.9086 51.0617C27.1457 51.0617 27.3778 51.037 27.6099 50.9827C27.7778 50.9432 27.9457 50.8938 28.1037 50.8296C28.2864 51.1605 28.5185 51.4667 28.7802 51.7383C29.6988 52.6815 31.0025 53.1605 32.6568 53.1605H33.837L31.4025 54.1728L33.2494 55.0864C33.9951 55.4519 34.7556 55.7827 35.5309 56.0741L35.3086 56.716L35.9457 57.0074C37.0025 57.4222 38.1235 57.6543 39.2593 57.6938H40.7753C41.9062 57.6543 43.0222 57.4173 44.0741 57.0025L44.6914 56.716L44.4741 56.0741C45.2593 55.7728 46.0296 55.4321 46.7802 55.0518L48.5926 54.1728L46.163 53.1852H47.3481C49.0025 53.1852 50.3111 52.6914 51.2247 51.763C51.4914 51.4914 51.7185 51.1852 51.9012 50.8543C52.0593 50.9185 52.2272 50.9679 52.3951 51.0074C52.6272 51.0617 52.8593 51.0864 53.0963 51.0864C53.4272 51.0864 53.763 51.042 54.084 50.963L55.5259 50.5827L54.8988 49.2593C54.6617 48.5877 54.6716 47.8519 54.9235 47.1852C55.0272 46.8839 55.1111 46.5778 55.1802 46.2716C55.4568 46.3309 55.7432 46.3605 56.0247 46.3605C57.116 46.3704 58.1333 45.8074 58.7111 44.879L59.4123 43.6543L58.1086 43.121C57.3185 42.7259 56.7654 41.9704 56.6272 41.0963C57.9753 40.9185 59.0963 39.9704 59.4914 38.6667L59.4716 38.7062Z" fill="white"/>
<path d="M45.9359 43.9506H34.084V48.395C34.084 50.2222 35.4025 51.358 37.3531 51.358C38.9828 51.358 39.4124 51.4222 40.0149 52.0246C40.3951 51.6148 40.9334 51.3827 41.4964 51.3925V51.3234L41.8717 50.1678L41.2346 49.4715C40.9778 49.5506 40.7112 49.5802 40.4445 49.5654C40.0445 49.5604 39.6494 49.5209 39.2593 49.4419H39.1359C39.0815 49.4419 39.0815 49.4419 39.0667 49.4715L38.9927 49.595L38.8593 49.8172L38.6025 49.758L37.4618 49.4913L37.3038 49.7481V49.7777L37.442 49.9308L37.3828 50.1283C37.2791 50.3703 37.1309 50.5876 36.9433 50.7753L36.6569 51.0814L36.3951 50.7555L36.2025 50.5135C35.9951 50.2419 35.9457 49.8864 36.0643 49.5654L35.7433 49.6987L35.6001 49.3827L35.5211 49.1604C35.3186 48.6913 35.4717 48.1481 35.8815 47.8518L36.8001 47.358L37.6741 47.5308C37.6741 47.4469 37.7285 47.1456 37.7532 47.0715H37.7038L37.2099 47.2592L36.7161 46.9234C36.6173 46.8246 36.6124 46.6617 36.7161 46.558L37.1852 45.8469L35.9951 44.3654L37.7778 45.0666L37.9013 44.9185L38.1482 44.6222L38.4297 44.8888C38.5038 44.9629 38.5531 45.0518 38.5778 45.1555C39.0717 45.353 39.9852 45.9308 40.0593 46.8691L39.7778 46.9827C39.8124 47.032 39.8569 47.0715 39.9112 47.0962L41.2149 47.2246L41.3334 47.1901C41.5556 47.1061 41.7927 47.0617 42.0297 47.0567C42.2667 47.0567 42.4988 47.1111 42.7112 47.2148C42.805 47.1802 42.9087 47.1604 43.0075 47.1555H43.0717C43.768 47.1555 44.1186 47.679 44.3951 48.0938L44.5383 48.3012C44.7803 48.6469 45.1013 49.1506 45.1161 49.1703L45.2593 49.3925L45.0815 49.5999C44.9186 49.8172 44.6618 49.9407 44.3902 49.9407C44.3112 49.9456 44.2322 49.9456 44.1531 49.9407C44.084 49.9259 44.0149 49.9061 43.9457 49.8765C43.9457 49.9456 43.9457 50.0296 43.9062 50.0987L43.7038 51.2641C45.047 50.9925 45.9951 49.7876 45.9408 48.4148L45.9359 43.9506ZM34.0692 43.5901H43.2988C42.9235 43.1951 42.7951 42.6272 42.963 42.1086C42.8396 42.0494 42.721 41.9704 42.6173 41.8815C42.2568 42.1481 41.1359 42.9481 40.8692 43.1506L40.8099 43.1901L37.1852 42.5481H37.1112C36.9926 42.5531 36.8741 42.5531 36.7556 42.5481C36.721 42.7111 36.5778 42.8247 36.4149 42.8247H36.3556C36.163 42.7901 36.0297 42.6074 36.0593 42.4148V42.3358C35.5902 42 35.368 41.4173 35.4914 40.8543V40.7901L35.5457 40.7506C35.5457 40.7506 35.6149 40.7012 35.7087 40.6469L35.447 40.6074C35.3482 40.5876 35.284 40.4988 35.2988 40.4C35.3136 40.3012 35.4025 40.237 35.5013 40.2518H35.5062L36.1334 40.3506L36.1926 38.1432L37.126 37.1555L37.7087 38.3802L37.0964 40.5037L37.6494 40.5926C37.7482 40.6123 37.8124 40.7012 37.7976 40.8C37.7828 40.8889 37.7087 40.9481 37.6198 40.9481H37.5902L37.1408 40.8741V40.9086C37.1902 40.9975 37.2643 41.0667 37.3581 41.1111L40.1186 41.1555L40.8247 40.4593C40.2865 40.2716 39.9013 39.7975 39.8371 39.2296C39.4914 39.0963 39.2099 38.8395 39.0519 38.5086C38.9186 38.1975 38.8939 37.8469 38.9877 37.521C38.5531 37.3481 38.1581 37.0864 37.8371 36.7506H33.7383C33.9359 37.2346 34.0494 37.7481 34.0692 38.2667V43.5901Z" fill="#FCE527"/>
<path d="M37.8569 45.8914C37.7976 45.8914 37.7433 45.9358 37.7383 45.9951V46C37.7334 46.0642 37.7828 46.1235 37.847 46.1284H37.8519C37.921 46.1284 37.9704 46.0741 37.9704 46.0099C37.9704 45.9407 37.921 45.8914 37.8569 45.8914Z" fill="#222220"/>
<path d="M37.8519 45.8865C37.8568 45.8865 37.8568 45.8914 37.8568 45.8914C37.8618 45.8914 37.8618 45.8865 37.8667 45.8865H37.8519ZM45.9209 53.9852L45.2395 53.7235L45.4271 53.0173L45.6345 52.2469C44.7012 52.726 43.7234 53.1111 42.716 53.3976C42.2222 53.5358 41.8666 53.6 41.8666 53.6V54.0988C41.2592 54.1976 40.6469 54.2519 40.0296 54.2568H39.9753C39.358 54.2519 38.7456 54.1976 38.1382 54.0988V53.605C38.1382 53.605 37.7777 53.5358 37.2839 53.3976C36.2765 53.1111 35.2987 52.726 34.3654 52.2469L34.5679 53.0173L34.7604 53.7235L34.074 53.9852L33.3333 54.2667C34.3506 54.7951 35.4123 55.2346 36.5086 55.5803L36.2469 56.2914C37.437 56.7457 38.7111 56.9679 39.9851 56.9383H40.0148C41.2888 56.9679 42.5629 56.7457 43.753 56.2914L43.4962 55.5803C44.5876 55.2346 45.6493 54.7951 46.6666 54.2667L45.9209 53.9852ZM34.158 54.3111L35.2641 53.9408L34.9333 52.8544C35.6592 53.2148 36.4098 53.5161 37.1851 53.7531L36.6419 55.2346C35.7876 55.0074 34.953 54.6963 34.158 54.3111ZM40.0296 56.5877L40.0049 56.5679C38.9185 56.563 37.837 56.4148 36.7901 56.1284L37.4567 54.321C38.2864 54.5284 39.1407 54.642 39.9999 54.6469H40.0543C40.9135 54.6371 41.7678 54.5284 42.5975 54.321L43.2641 56.1284C42.2123 56.4247 41.1209 56.5778 40.0296 56.5877ZM43.3975 55.2642V55.2494L42.8543 53.7679C43.6296 53.5309 44.3802 53.2297 45.1061 52.8692L44.7753 53.9556L45.8962 54.3309C45.0962 54.721 44.2567 55.0371 43.3975 55.2642ZM40 25.7976C41.116 25.7679 42.2123 26.1037 43.1209 26.7507C43.2642 26.0198 43.5358 25.3186 43.9259 24.6815L42.8049 24.8099L42.2222 23.5605L41.0913 24.1432L40 23.0618L38.9086 24.1432L37.7777 23.5605L37.195 24.8099L36.074 24.6815C36.4642 25.3186 36.7358 26.0198 36.879 26.7507C37.7876 26.1037 38.8839 25.7679 40 25.7976ZM37.1456 25.2445L37.4568 25.279L37.5901 24.9976L37.9802 24.1581L38.7061 24.5334L38.9876 24.6766L39.2148 24.4692L40 23.6741L40.7851 24.4692L41.0123 24.6914L41.2938 24.5482L42.0148 24.1729L42.4098 25.0124L42.5432 25.2939L42.8543 25.2593L43.1506 25.2247C43.0321 25.4963 42.9284 25.7778 42.8444 26.0642C41.0617 25.1507 38.9432 25.1507 37.1605 26.0642C37.0765 25.7778 36.9728 25.4963 36.8543 25.2247L37.1456 25.2445ZM54.647 35.9901L54.5136 35.8272C53.5951 34.6568 52.721 33.5457 51.1606 33.037C51.2248 32.9827 51.289 32.9333 51.3581 32.8889C52.0988 32.4691 52.6223 31.7482 52.7902 30.9136C52.8741 30.158 52.6618 29.4025 52.1976 28.8L51.7038 28.1827L51.3927 28.9185C51.3927 28.963 50.8445 30.1432 49.7383 30.1432H49.4124C49.4717 29.3679 49.1902 28.6025 48.642 28.0494C47.9754 27.3679 47.0569 26.9877 46.1038 26.9926C45.926 26.9926 45.7482 27.0074 45.5754 27.0321L44.8198 27.1803L45.289 27.7975C45.6544 28.2914 45.9852 29.1457 45.5951 29.6049C45.4075 29.7679 45.1951 29.8963 44.963 29.9852C44.4692 30.2173 43.7581 30.5482 43.7581 31.3778C43.7581 31.9161 44.1778 32.479 44.9334 32.958C47.1606 34.3704 48.5383 35.8272 49.1359 37.4667C50.0593 39.9654 48.8544 41.3877 47.684 42.1383L47.1606 42.4741L47.6198 42.8938C48.0297 43.2445 48.5334 43.4617 49.0717 43.5161H49.521C49.9803 43.5161 50.4346 43.4519 50.8741 43.3185C50.7655 43.5111 50.6322 43.6938 50.489 43.8617C49.8223 44.637 48.8346 45.0617 47.8124 45.0074H47.3729L47.3383 45.4469C47.3334 46.0642 47.605 46.6469 48.0741 47.0469C48.1976 47.1556 48.3359 47.2445 48.484 47.3136C47.7531 48.0247 47.3383 48.9975 47.3235 50.0198C47.3235 50.5778 47.1951 51.1309 46.9531 51.6346L46.4593 52.3753H47.3383C48.7902 52.3753 49.9013 51.9753 50.6717 51.1803C51.0717 50.7605 51.368 50.2519 51.5408 49.6988C51.8272 49.9407 52.163 50.1087 52.5285 50.1926C52.7013 50.2321 52.8791 50.2519 53.0569 50.2519C53.3235 50.2519 53.5902 50.2173 53.847 50.158L54.4099 50.0099L54.163 49.4864C53.8519 48.6519 53.8519 47.7284 54.163 46.8938C54.3457 46.3506 54.4741 45.7877 54.5433 45.2148C54.9877 45.442 55.4815 45.5556 55.9803 45.5506C56.8001 45.5605 57.5655 45.1556 58.0099 44.4691L58.2815 43.9753L57.7877 43.7679C56.1334 43.0815 55.768 41.2346 55.6939 40.237C55.8569 40.2716 56.0198 40.2914 56.1877 40.2963L56.326 40.3901C58.1235 40.3901 58.726 38.558 58.7507 38.479L58.9531 37.8321H58.2766C56.8544 37.7827 55.526 37.1111 54.647 35.9901ZM56.3309 39.8914H56.2618C55.9013 39.8963 55.5457 39.7975 55.2396 39.6099C55.2396 39.6099 54.9778 43.1803 57.6396 44.2864V44.3012C57.289 44.8346 56.6865 45.1506 56.0494 45.1407C55.3285 45.1852 54.6322 44.879 54.1778 44.321C54.1927 45.1605 54.0544 46 53.7729 46.7901C53.4124 47.7432 53.4124 48.8 53.7729 49.7531C53.5507 49.8074 53.3285 49.837 53.1013 49.837C52.963 49.837 52.8198 49.8222 52.6865 49.7877C52.0297 49.6296 51.5062 49.1457 51.2939 48.5086C51.2939 48.5086 51.3976 51.9358 47.4025 51.9358H47.3729C47.6741 51.363 47.8322 50.7259 47.8272 50.079C48.0001 47.5457 49.7186 47.1852 49.7186 47.1852C49.2445 47.1259 48.7951 46.958 48.4001 46.6914C48.0396 46.3901 47.8322 45.9457 47.8223 45.4766C48.9778 45.5259 50.0939 45.0469 50.8494 44.1679C51.3038 43.6494 51.605 43.0173 51.7334 42.3407C51.0964 42.8198 50.3112 43.0617 49.5161 43.0272H49.1112C48.6815 42.9827 48.2717 42.8148 47.9408 42.5333C49.4618 41.5457 50.5285 39.8568 49.5852 37.2938C48.8248 35.2395 47.0025 33.7037 45.1704 32.5482C44.563 32.1728 44.1976 31.7482 44.1976 31.3827C44.1976 30.5235 45.4173 30.4988 45.9211 29.9012C46.4988 29.2296 46.1383 28.1432 45.6346 27.4914C45.7778 27.4667 45.926 27.4568 46.0692 27.4568C46.8939 27.4469 47.689 27.7778 48.2618 28.3704C48.8445 28.9235 49.0667 29.758 48.8445 30.5284L49.1112 30.5827C49.2741 30.6124 49.4371 30.6272 49.605 30.6321H49.7136C51.1606 30.6321 51.8124 29.1161 51.8124 29.1161C51.8124 29.1161 53.3531 31.0124 51.0865 32.4938C50.6964 32.7457 50.5235 32.9877 50.5927 33.2346L50.6272 33.3975L50.7902 33.4272C52.4346 33.8716 53.2593 35.0074 54.2815 36.2963C55.2494 37.5259 56.7112 38.2667 58.2766 38.321H58.3062C58.3062 38.321 57.8124 39.8914 56.3309 39.8914Z" fill="#222220"/>
<path d="M53.1604 33.2593C53.7135 33.5753 54.1925 34.005 54.5679 34.5185C54.8493 34.9531 55.2493 35.2988 55.7234 35.5062C55.9012 35.5655 56.0938 35.5951 56.2814 35.5951C57.037 35.5951 57.7283 35.1655 58.074 34.4938L58.3604 33.8519L57.6641 33.8124C56.9135 33.6741 56.237 33.2889 55.7382 32.7111C55.3679 32.3111 54.8493 32.079 54.3012 32.0741C53.8765 32.079 53.4666 32.2074 53.1111 32.4346L52.4691 32.884L53.1604 33.2593ZM54.316 32.5531L54.3012 32.558C54.7209 32.558 55.116 32.7408 55.3975 33.0519C55.9753 33.7136 56.7654 34.1531 57.6345 34.2963C57.3679 34.7951 56.8493 35.1062 56.2814 35.1111C56.1432 35.1111 56.0049 35.0864 55.8716 35.042C55.0716 34.7704 54.7901 33.5605 53.4024 32.8297C53.674 32.6519 53.9901 32.558 54.316 32.5531ZM53.4864 39.6247L53.4766 39.6148C53.0716 36.3555 50.7062 34 48.0741 32.5728C47.8321 32.4395 47.605 32.3309 47.3877 32.2271C48.4741 32.4494 49.605 32.1827 50.479 31.5012C50.479 31.5012 48.9531 32.6222 45.8321 31.6049C46.6963 32.1679 48.3753 32.958 49.9111 34.242C53.7432 37.6099 51.0025 40.8988 51.0025 40.8988C52.1482 39.8123 52.5482 38.1531 52.0346 36.6617C52.8445 38.0099 53.2346 39.5704 53.1506 41.1407C53.042 43.7284 51.605 45.9901 50.1235 47.7926C49.679 48.3605 49.3729 49.0271 49.2445 49.7383C49.4963 49.0321 49.8766 48.3802 50.3704 47.8173C51.9753 45.9358 53.3334 43.9852 53.5259 41.1753C53.6939 41.6691 54.3753 43.1062 55.4618 43.6444C55.4618 43.6444 54.0988 42.8247 53.4864 39.6247ZM33.042 51.6692C32.805 51.1655 32.6766 50.6124 32.6716 50.0544C32.6568 49.0322 32.2371 48.0593 31.5062 47.3482C31.6543 47.2791 31.7926 47.1902 31.9161 47.0816C32.3852 46.6816 32.6568 46.0988 32.6519 45.4816L32.6222 45.042H32.1778C31.1605 45.0914 30.1729 44.6717 29.5062 43.8964C29.363 43.7285 29.2346 43.5458 29.121 43.3532C29.5605 43.4865 30.0148 43.5507 30.4741 43.5507H30.9235C31.4618 43.4964 31.9704 43.2791 32.3803 42.9285L32.8395 42.5087L32.3161 42.1729C31.1408 41.4223 29.9408 40.0001 30.8642 37.5013C31.4618 35.8766 32.8395 34.4099 35.0864 32.9976C35.842 32.5038 36.2568 31.9556 36.2568 31.4174C36.2568 30.5877 35.5605 30.2569 35.0519 30.0248C34.8198 29.9359 34.6074 29.8075 34.4198 29.6445C34.0247 29.1853 34.3556 28.3112 34.7259 27.8371L35.2198 27.2198L34.4593 27.0717C34.2864 27.042 34.1087 27.0322 33.9309 27.0322C32.9679 27.0025 32.0395 27.3729 31.358 28.0494C30.8 28.5976 30.5087 29.368 30.563 30.1482H30.2667C29.1556 30.1482 28.6321 28.9729 28.6124 28.9235L28.3013 28.1877L27.8074 28.805C27.3482 29.4075 27.1358 30.163 27.2198 30.9186C27.3877 31.7532 27.9062 32.4741 28.6469 32.8939C28.7161 32.9383 28.7852 32.9877 28.8445 33.042C27.284 33.5359 26.4099 34.6618 25.4914 35.8322L25.358 36.0001C24.479 37.1211 23.1457 37.7927 21.7235 37.842H21.0469L21.2543 38.489C21.2543 38.568 21.8766 40.4001 23.679 40.4001H23.7679C23.9358 40.3951 24.0988 40.3754 24.2617 40.3408C24.1877 41.3285 23.8222 43.1853 22.163 43.8717L21.6692 44.0791L21.9408 44.5729C22.3852 45.2593 23.1506 45.6643 23.9704 45.6544C24.4692 45.6593 24.958 45.5457 25.4025 45.3186C25.4716 45.8914 25.6 46.4544 25.7827 46.9976C26.0938 47.8322 26.0938 48.7556 25.7827 49.5902L25.5358 50.1137L26.0988 50.2618C26.3556 50.3211 26.6222 50.3556 26.8889 50.3556C27.0667 50.3556 27.2445 50.3359 27.4173 50.2964C27.7827 50.2124 28.1185 50.0445 28.405 49.8025C28.5778 50.3556 28.8741 50.8643 29.2741 51.284C30.0494 52.0791 31.1605 52.4741 32.6074 52.4791H33.4864L33.042 51.6692ZM32.6173 51.9457C28.6222 51.9457 28.721 48.5186 28.721 48.5186C28.5087 49.1556 27.9852 49.6396 27.3284 49.7976C27.1951 49.8322 27.0519 49.847 26.9136 49.847C26.6864 49.847 26.4642 49.8174 26.2469 49.763C26.6074 48.8099 26.6074 47.7532 26.2469 46.8001C25.9654 46.0099 25.8321 45.1704 25.8469 44.3309C25.3926 44.889 24.6963 45.1951 23.9753 45.1507H23.9506C23.3087 45.1606 22.7062 44.8396 22.3556 44.3062C25.0173 43.2001 24.7556 39.6297 24.7556 39.6297C24.4494 39.8174 24.0938 39.9161 23.7334 39.9112H23.679C22.1975 39.9112 21.7037 38.3408 21.7037 38.3408H21.7334C23.2988 38.2914 24.7654 37.5507 25.7334 36.3211C26.7506 35.0322 27.5803 33.8964 29.2247 33.4519L29.3877 33.4223L29.4222 33.2593C29.4667 33.0075 29.2938 32.7655 28.9284 32.5186C26.6617 31.0371 28.2025 29.1408 28.2025 29.1408C28.2025 29.1408 28.8445 30.6569 30.3013 30.6569H30.3704C30.5383 30.6519 30.7013 30.6371 30.8642 30.6075L31.1309 30.5532C30.9037 29.7828 31.1309 28.9482 31.7136 28.3951C32.2864 27.8025 33.0815 27.4717 33.9062 27.4815C34.0494 27.4815 34.1976 27.4914 34.3408 27.5161C33.8469 28.1729 33.4815 29.2593 34.0593 29.926C34.5531 30.5038 35.7778 30.5285 35.7778 31.4075C35.7778 31.7729 35.4371 32.1976 34.8297 32.5778C32.9926 33.7334 31.1704 35.2692 30.4148 37.3235C29.4716 39.8865 30.5383 41.5902 32.0593 42.563C31.7284 42.8396 31.3185 43.0124 30.8889 43.0569H30.479C29.684 43.0914 28.8988 42.8495 28.2617 42.3704C28.3901 43.047 28.6914 43.6791 29.1408 44.1976C29.8963 45.0717 31.0173 45.5556 32.1729 45.5062C32.163 45.9754 31.9556 46.4198 31.5951 46.7211C31.2 46.9877 30.7506 47.1556 30.2766 47.2149C30.2766 47.2149 32 47.5655 32.1877 50.1087C32.1827 50.7556 32.3408 51.3927 32.642 51.9655L32.6173 51.9457Z" fill="#222220"/>
<path d="M23.7136 35.5901H23.7185C23.9062 35.5901 24.0988 35.5605 24.2765 35.5013C24.7506 35.2938 25.1506 34.9482 25.4321 34.5136C25.8025 34 26.2815 33.5704 26.8346 33.2543L27.5259 32.884L26.8839 32.4346C26.5284 32.2074 26.1185 32.079 25.6988 32.0741C25.1506 32.079 24.6321 32.3111 24.2617 32.7161C23.7679 33.2889 23.0864 33.679 22.3407 33.8173L21.6444 33.8519L21.9259 34.4938C22.2716 35.1655 22.958 35.5852 23.7136 35.5901ZM24.6025 33.0519C24.879 32.7408 25.2741 32.558 25.6938 32.558C26.0148 32.563 26.3309 32.6618 26.6025 32.8346C25.2049 33.5803 24.9136 34.7753 24.1333 35.0469C24.0049 35.0914 23.8667 35.1161 23.7284 35.1161C23.1555 35.1161 22.6321 34.8 22.3654 34.2963C23.2346 34.1531 24.0247 33.7136 24.6025 33.0519ZM26.8593 41.1605C26.7753 39.5901 27.1605 38.0296 27.9753 36.6815C27.4618 38.1728 27.8618 39.8321 29.0074 40.9185C29.0074 40.9185 26.2618 37.6296 30.0988 34.2617C31.6346 32.9778 33.3087 32.1877 34.1729 31.6247C31.0519 32.642 29.526 31.521 29.526 31.521C30.4 32.2025 31.526 32.4691 32.6124 32.2469C32.3951 32.3506 32.1679 32.4642 31.926 32.5926C29.2939 34.0247 26.9136 36.3803 26.5235 39.6395V39.6148C25.9111 42.8148 24.5482 43.6346 24.5482 43.6346C25.6297 43.1012 26.3161 41.6593 26.479 41.1654C26.6618 43.9803 28.0346 45.9309 29.6395 47.8074C30.1284 48.3704 30.5136 49.0222 30.7655 49.7284C30.6321 49.0222 30.326 48.3556 29.8766 47.7926C28.3951 45.9901 26.963 43.7284 26.8593 41.1605ZM39.0963 35.2148C39.2691 35.0469 39.5111 34.9679 39.7531 34.9975V35.9308C39.7482 36.1629 39.6889 36.3852 39.5753 36.5876H40.5086C40.3951 36.3852 40.3358 36.1629 40.3309 35.9308V34.9975C40.5679 34.9679 40.8099 35.0469 40.9827 35.2148V34.5679H39.0963V35.2148ZM38.7062 30.7358H38.6963C38.8395 30.8593 39.0074 30.958 39.1902 31.0173L39.3087 31.0716V30.4593L38.2124 30C38.2667 30.3062 38.4445 30.5728 38.7062 30.7358ZM41.3087 30.7309L41.3037 30.7358C41.5655 30.5728 41.7432 30.3062 41.7976 30L40.7013 30.4593V31.0667L40.8148 31.0123C40.9976 30.9531 41.1655 30.8543 41.3087 30.7309Z" fill="#222220"/>
<path d="M43.2741 28.2568C43.2741 27.3333 41.7185 26.5037 40.0049 26.5037C38.2913 26.5037 36.7358 27.3333 36.7358 28.2568L36.7703 28.4839L37.4568 32.4345L36.7703 32.8345L34.9778 33.8518C34.9778 33.8518 34.5778 34.0592 34.3901 34.1827C33.7136 34.6765 33.5703 35.3382 33.9605 35.6247C34.0592 34.953 34.6469 34.4592 35.3284 34.479C35.8963 34.4938 36.4247 34.7802 36.7457 35.2493C36.8444 35.3679 36.9333 35.4963 37.0123 35.6247C37.116 35.7926 37.2197 35.9407 37.3234 36.0839H32.7506C33.1358 36.7456 33.358 37.4913 33.4074 38.2567V48.4148C33.4074 50.8839 35.2987 52.0444 37.358 52.0444C38.9383 52.0444 39.1506 51.9703 40.0197 52.8395C40.8889 51.9703 41.1012 52.0444 42.6815 52.0444C44.7259 52.0444 46.6321 50.874 46.6321 48.4148V38.2666C46.6815 37.5012 46.9037 36.7555 47.2889 36.0938H42.6666C42.7703 35.9506 42.8741 35.8024 42.9778 35.6345C43.0617 35.5061 43.1506 35.3777 43.2444 35.2592C43.5703 34.7901 44.0987 34.5037 44.6666 34.4888C45.3481 34.4691 45.9358 34.9629 46.0345 35.6345C46.4296 35.353 46.2864 34.6469 45.6049 34.1926C45.4222 34.0642 45.0222 33.8617 45.0222 33.8617L43.2444 32.8148L42.558 32.4148L43.2444 28.4642L43.2741 28.2568ZM37.3975 28.7111L39.8074 29.5259V33.3086L38.0345 32.3703L37.3975 28.7111ZM33.7382 36.7506H37.8913C38.2123 37.0864 38.6074 37.353 39.042 37.5209C38.9481 37.8469 38.9728 38.1975 39.1062 38.5086C39.2642 38.8395 39.5457 39.0963 39.8913 39.2296C39.9555 39.7975 40.3407 40.2716 40.879 40.4592C40.5827 40.7605 40.2913 41.0419 40.1728 41.1555L37.4123 41.1111C37.3185 41.0666 37.2444 40.9975 37.195 40.9086V40.874L37.6444 40.9481H37.6741C37.7629 40.9481 37.837 40.8888 37.8518 40.8C37.8666 40.7012 37.8024 40.6123 37.7037 40.5926L37.1506 40.5037L37.7629 38.3802L37.1802 37.1555L36.2469 38.1432L36.1876 40.3506L35.5605 40.2518C35.4617 40.2321 35.3728 40.2963 35.3531 40.395V40.4C35.3382 40.4987 35.4024 40.5876 35.5012 40.6074L35.7629 40.6469C35.6691 40.7012 35.6049 40.7407 35.6 40.7506L35.5457 40.7901V40.8543C35.4222 41.4172 35.6494 42 36.1136 42.3358V42.4148C36.0839 42.6074 36.2173 42.7901 36.4099 42.8246H36.4691C36.6321 42.8246 36.7753 42.7111 36.8099 42.5481C36.9284 42.553 37.042 42.553 37.1605 42.5481H37.2345L40.8543 43.2049L40.9136 43.1654C41.2 42.9629 42.3012 42.1777 42.6617 41.8963C42.7654 41.9851 42.8839 42.0642 43.0074 42.1234C42.8395 42.6419 42.9679 43.2098 43.3432 43.6049H34.0691V38.2666C34.0494 37.7481 33.9358 37.2345 33.7382 36.7506ZM42.3506 41.6345C41.9753 41.9111 41.0518 42.5827 40.716 42.8197L37.4321 42.2469V42.158C37.4864 41.9358 37.516 41.7086 37.521 41.4814L40.2864 41.5259L40.3407 41.4716C40.3852 41.4271 41.2592 40.5827 41.7037 40.0938C41.8222 40.2419 41.9605 40.3654 42.1185 40.4642C42.0395 40.8691 42.1234 41.2888 42.3506 41.6345ZM36.8642 41.0419V41.0567C36.9383 41.195 37.0469 41.3135 37.1802 41.3926C37.1753 41.595 37.1555 41.7926 37.121 41.9901C37.121 42.0345 37.121 42.079 37.0864 42.1234V42.1926C36.8592 42.1926 36.637 42.158 36.4197 42.0888C36.0247 41.8765 35.8024 41.4419 35.8666 40.9975C36.0444 40.874 36.2469 40.795 36.4592 40.7654C36.642 40.7605 36.8049 40.8691 36.8642 41.0419ZM36.5234 40.3851L36.5778 38.2963L37.0716 37.8024L37.3728 38.4296L36.7852 40.4642L36.5234 40.3851ZM42.3259 51.3876H41.8518L42.2222 50.1777C42.2815 50.0098 41.9753 49.7925 41.8469 49.6C42.1481 49.7827 42.4592 49.9456 42.7802 50.0938C42.7802 50.1333 42.3259 51.3876 42.3259 51.3876ZM43.595 50.0345L43.5555 50L43.2987 51.3333C43.1358 51.3333 42.9629 51.3679 42.8049 51.3777L43.0765 50.0938C43.1555 49.7135 42.1333 49.6 41.6296 48.8444C41.2987 49.1209 40.8741 49.2493 40.4494 49.2049C40.0741 49.2 39.7037 49.1604 39.3382 49.0864C39.2741 49.0814 39.2099 49.0814 39.1457 49.0864C38.9926 49.0765 38.8444 49.1555 38.7654 49.2888L38.6913 49.4123L37.2839 49.0716L36.9481 49.6543C36.8938 49.7333 36.9037 49.8419 36.9728 49.9111L37.0666 50.0148C36.9728 50.1975 36.8543 50.3654 36.7111 50.5086L36.5037 50.2518C36.3457 49.995 36.3605 49.6642 36.5383 49.4222L37.0913 48.4888L38.2716 48.6666L38.0889 48.2469C37.842 47.6938 38.2173 46.9876 38.2568 46.5827C38.2568 46.7061 38.1284 46.7308 38 46.7308H37.6592C37.6345 46.7259 37.6049 46.7259 37.5802 46.7308L37.2592 46.9234L37.0074 46.6913C36.9679 46.6172 36.9827 46.5284 37.042 46.474L37.6247 45.8172L36.9333 45.0123L37.921 45.5061L38.2173 45.1506C38.2963 45.2296 38.2617 45.437 38.2617 45.437C38.9778 45.6148 39.4765 46.2666 39.4568 47.0074V47.1506C39.5555 47.3086 39.7136 47.4172 39.8913 47.4617L41.2296 47.595C41.4963 47.5111 41.7679 47.4567 42.0444 47.4222C42.2815 47.4222 42.5185 47.4963 42.716 47.6246C42.8099 47.5605 42.9234 47.5209 43.037 47.516H43.0815C43.679 47.516 43.9308 48.0592 44.2518 48.5037C44.4938 48.8444 44.8197 49.358 44.8197 49.358C44.7259 49.4963 44.5728 49.5802 44.4049 49.5802C44.3457 49.5851 44.2913 49.5851 44.2321 49.5802C43.5901 49.4617 43.4963 48.1382 43.1308 48.0345H43.0716C43.0024 48.0345 42.9383 48.074 42.9037 48.1382C43.0716 48.5876 42.9728 48.7703 43.1555 49.1259C43.2889 49.3382 43.4568 49.5308 43.6494 49.6938C43.6494 49.6938 43.6247 49.8913 43.595 50.0345ZM36.4 48.7407H36.3901L36.4494 48.8938C36.4099 49.0271 35.9555 49.2197 35.9555 49.2197L35.8568 49.0024C35.7284 48.6913 35.8222 48.3358 36.0938 48.1333L36.8395 47.679L37.6345 47.8469C37.6296 48.0049 37.679 48.158 37.7728 48.2864L36.9382 48.1284L36.4444 48.474C36.3654 48.5432 36.3506 48.6518 36.4 48.7407ZM45.9506 48.4197C46.0049 49.7926 45.0518 50.9975 43.7037 51.2642L43.9308 50.0691C43.9308 50 43.9555 49.916 43.9654 49.8469C44.0345 49.8765 44.1037 49.8963 44.1728 49.9111C44.2518 49.916 44.3308 49.916 44.4099 49.9111C44.6815 49.9111 44.9383 49.7876 45.1012 49.5703L45.279 49.3629L45.1308 49.1605C45.1308 49.1605 44.8 48.637 44.5531 48.2913L44.4148 48.0839C44.1382 47.6691 43.7876 47.1456 43.0913 47.1456H43.0271C42.9284 47.1506 42.8247 47.1703 42.7308 47.2049C42.5185 47.1012 42.2864 47.0469 42.0494 47.0469C41.8123 47.0518 41.5753 47.0963 41.3531 47.1802L41.2345 47.2148L39.9308 47.0864C39.8765 47.0617 39.8321 47.0222 39.7975 46.9728L40.079 46.8592C40 45.916 39.0913 45.3382 38.5975 45.1456C38.5728 45.0419 38.5234 44.953 38.4494 44.879L38.1679 44.6123L37.921 44.9086L37.7975 45.0567L35.9703 44.3061L37.1605 45.7876L36.6913 46.4987C36.5926 46.5975 36.5876 46.7605 36.6913 46.8642L37.1852 47.2L37.679 47.0123H37.7284C37.7284 47.0864 37.6741 47.3876 37.6494 47.4716L36.7901 47.3234L35.8716 47.8172C35.4469 48.1234 35.2987 48.6864 35.521 49.1605L35.6247 49.3827L35.7679 49.6987L36.0889 49.5654C35.9703 49.8864 36.0197 50.2419 36.2271 50.5135L36.4197 50.7605L36.6765 51.0864L36.9629 50.7802C37.1506 50.5926 37.2987 50.3753 37.4024 50.1333L37.4617 49.9358L37.3234 49.7827V49.753L37.4815 49.4963L38.6222 49.7629L38.879 49.8222L39.0173 49.595L39.0913 49.4716C39.0913 49.4469 39.0913 49.4419 39.1605 49.4419H39.2839C39.6741 49.5209 40.0691 49.5605 40.4642 49.5654C40.7308 49.5802 40.9975 49.5506 41.2543 49.4716L41.8864 50.1926L41.5111 51.3481V51.4172C40.9481 51.4074 40.4099 51.6395 40.0296 52.0493C39.4222 51.4469 38.9926 51.3827 37.3679 51.3827C35.4173 51.3827 34.0987 50.2419 34.0987 48.4197V43.9753H45.9506V48.4197ZM46.2716 36.7506C46.0691 37.2296 45.9605 37.7432 45.9407 38.2666V41.595C45.5111 41.5012 45.1901 41.1358 45.1605 40.6963V40.5432H45.0123C44.7555 40.5234 44.5185 40.4049 44.3407 40.2222C44.1234 39.9703 44.0049 39.6543 44 39.3234C43.7876 39.6691 43.8074 40.1135 44.0543 40.4395C44.2469 40.6814 44.5284 40.8444 44.8345 40.8839C44.9234 41.4567 45.3827 41.9012 45.9555 41.9753V43.6049H43.8815C43.3383 43.3284 43.1111 42.6814 43.3531 42.1234L43.4321 41.9456L43.2494 41.8765C42.6568 41.6691 42.3308 41.0321 42.5185 40.4296L42.558 40.2814L42.4197 40.2172C41.9012 39.916 41.6148 39.3284 41.6987 38.7358C41.4271 39.0123 41.358 39.4321 41.5308 39.7777C41.4321 39.8913 41.3037 40.0246 41.1605 40.1728C40.642 40.0642 40.2666 39.6148 40.2469 39.0864V38.9629L40.1333 38.9185C39.8321 38.8296 39.5852 38.6222 39.442 38.3456C39.3481 38.1185 39.3284 37.8617 39.3926 37.6246C39.4913 37.6444 39.5901 37.6592 39.6889 37.6691C39.7876 37.674 39.8913 37.674 39.9901 37.6691C40.7901 37.6691 41.5506 37.3234 42.0839 36.7308L46.2716 36.7506ZM43.0716 33.3827L43.8815 33.8765L44.0839 33.995C43.6642 34.1086 43.2839 34.3358 42.9827 34.6518L42.9481 34.6814C42.879 34.7555 42.8148 34.8296 42.7506 34.9086L42.7111 34.958C42.6469 35.037 42.5876 35.1209 42.5333 35.2098L42.5037 35.2543C42.4345 35.353 42.3703 35.4617 42.3062 35.5703C41.8568 36.4642 40.9827 37.0617 39.9901 37.1605C38.9975 37.0617 38.1234 36.4642 37.6741 35.5703C37.6099 35.4617 37.5457 35.358 37.4815 35.2543L37.442 35.2L37.2839 34.9432L37.2395 34.8888C37.1753 34.8098 37.1111 34.7358 37.0469 34.6666L37.0123 34.6321C36.7111 34.316 36.3308 34.0888 35.9111 33.9753L36.1185 33.8567L36.9333 33.3629L37.7679 32.8691L39.995 34.079L42.2222 32.9086L43.0716 33.3827ZM41.9753 32.395L40.2024 33.3284V29.5308L42.6074 28.716L41.9753 32.395ZM40 29.1308L37.3629 28.074C37.5852 27.5407 38.6222 27.0864 40 27.0864C41.3778 27.0864 42.4148 27.5407 42.637 28.074L40 29.1308Z" fill="#222220"/>
</svg>
